<?xml version="1.0" encoding="UTF-8" standalone="no"?>
<!DOCTYPE svg PUBLIC "-//W3C//DTD SVG 1.1//EN" "http://www.w3.org/Graphics/SVG/1.1/DTD/svg11.dtd">
<!-- Created with Vectornator (http://vectornator.io/) -->
<svg stroke-miterlimit="10" style="fill-rule:nonzero;clip-rule:evenodd;stroke-linecap:round;stroke-linejoin:round;" version="1.1" viewBox="0 0 1024 1024" xml:space="preserve" xmlns="http://www.w3.org/2000/svg" xmlns:xlink="http://www.w3.org/1999/xlink">
<defs/>
<g id="Untitled">
<path d="M22.7248 250.504C22.7248 222.197 45.6721 199.25 73.979 199.25L118.826 199.25L157.267 224.877L176.487 224.877L214.928 199.25L1001.54 199.25L1001.54 231.284L1001.54 231.284L1001.54 231.284C1001.54 295.351 950.282 180.029 950.282 279.334C950.282 378.639 1001.54 263.318 1001.54 327.385L1001.54 391.453L404.259 391.453L365.818 417.08L346.598 417.08L308.157 391.453L263.31 391.453C235.003 391.453 212.056 414.4 212.056 442.707L212.056 493.961C212.056 522.268 235.003 545.216 263.31 545.216L998.988 545.216L1000.49 545.216L998.988 609.283L404.259 609.283L365.818 634.91L346.598 634.91L308.157 609.283L263.31 609.283C235.003 609.283 212.056 632.231 212.056 660.537L212.056 711.792C212.056 740.099 235.003 763.046 263.31 763.046L998.988 763.046L1000.49 763.046L998.988 763.046L998.988 827.114L211.725 827.114L173.284 852.741L154.064 852.741L115.623 827.114L73.979 827.114C45.6721 827.114 22.7249 804.166 22.7248 775.859L22.7248 250.504Z" fill="none" opacity="1" stroke="#e16531" stroke-linecap="butt" stroke-linejoin="round" stroke-width="20"/>
</g>
</svg>
