<?xml version="1.0" encoding="UTF-8" standalone="no"?>
<!DOCTYPE svg PUBLIC "-//W3C//DTD SVG 1.1//EN" "http://www.w3.org/Graphics/SVG/1.1/DTD/svg11.dtd">
<!-- Created with Vectornator (http://vectornator.io/) -->
<svg stroke-miterlimit="10" style="fill-rule:nonzero;clip-rule:evenodd;stroke-linecap:round;stroke-linejoin:round;" version="1.1" viewBox="0 0 1177 1024" xml:space="preserve" xmlns="http://www.w3.org/2000/svg" xmlns:xlink="http://www.w3.org/1999/xlink">
<defs/>
<g id="Untitled">
<path d="M588.5 0C305.733 0 76.5 229.233 76.5 512C76.5 794.767 305.733 1024 588.5 1024C871.267 1024 1100.5 794.767 1100.5 512C1100.5 229.233 871.267 0 588.5 0ZM500.748 146.792C504.476 146.792 508.206 147.919 511.406 150.157C566.553 182.597 621.872 214.663 677.409 246.324C683.386 249.125 686.988 255.352 686.384 261.925C685.995 280.659 686.384 299.377 686.384 318.159C686.384 321.03 686.724 323.916 687.015 327.906C690.519 326.203 692.897 325.188 695.184 323.874C715.719 312.05 736.346 300.238 756.783 288.219C761.189 285.227 766.996 285.227 771.402 288.219C828.042 321.113 884.698 353.855 941.403 386.489C947.073 389.288 950.455 395.264 949.922 401.565C949.663 466.444 949.663 531.455 949.922 596.562C950.407 603.136 946.772 609.324 940.807 612.128C885.14 644.081 829.574 676.23 774.102 708.54C768.123 712.821 760.097 712.821 754.118 708.54C734.07 696.375 713.574 684.893 693.186 673.166C691.58 672.533 689.596 671.983 686.384 670.571L686.384 762.811C686.731 768.638 683.574 774.113 678.356 776.73C621.943 809.234 565.539 841.885 509.127 874.649C504.067 878.055 497.428 878.055 492.369 874.649C435.696 841.723 379.045 808.903 322.438 776.204C317.593 773.904 314.619 768.903 314.9 763.548L314.9 564.834C314.663 559.486 317.685 554.529 322.543 552.283C342.007 541.237 361.1 530.05 380.32 518.907C383.726 516.96 387.057 514.809 391.679 512.035C387.787 509.456 384.936 507.155 381.968 505.549C362.504 494.26 343.024 482.89 323.56 471.893C317.805 469.142 314.358 463.102 314.9 456.747C315.095 391.868 315.095 326.894 314.9 261.82C314.439 255.235 318.139 249.073 324.156 246.359C379.628 214.471 434.942 182.402 490.09 150.157C493.289 147.919 497.019 146.792 500.748 146.792ZM664.367 277.07C661.205 278.676 658.801 279.788 656.514 281.102C610.45 307.8 564.213 334.559 517.856 361.387C513.285 363.498 510.527 368.255 510.95 373.272L510.95 535.209C511.096 537.399 511.499 539.763 511.791 543.413L511.791 543.518C514.808 542.009 516.348 541.344 517.856 540.468C534.693 530.736 551.291 520.363 568.516 511.264C575.491 508.39 579.66 501.175 578.648 493.699C578.162 464.212 578.631 434.734 578.193 405.246C577.339 396.429 582.311 388.06 590.463 384.596C613.82 371.701 636.926 358.232 659.845 344.559C662.957 342.443 665.012 339.071 665.489 335.338C666.073 318.113 665.781 300.901 665.489 283.626C665.271 281.413 664.894 279.231 664.367 277.07ZM598.948 417.236L598.948 498.608C598.552 503.624 601.392 508.327 606.029 510.282C629.727 523.664 653.103 537.688 676.848 551.021C683.32 553.939 687.208 560.639 686.56 567.709C686.073 590.919 686.571 614.181 686.279 637.441C685.742 642.441 688.456 647.228 693.011 649.361C710.917 659.093 728.469 669.854 746.23 680.072C747.982 681.143 750.034 681.914 752.856 683.228C753.289 680.83 753.582 678.402 753.733 675.97C753.733 621.228 753.73 566.497 753.487 511.755C753.128 508.006 751.105 504.605 747.983 502.499C700.588 474.714 652.952 447.336 605.363 419.795C603.27 418.835 601.133 417.962 598.948 417.236ZM413.802 525.042C411.891 524.965 409.972 525.479 408.297 526.584C389.855 537.582 371.163 548.177 352.624 558.979C350.922 560.226 349.29 561.603 347.751 563.046C349.454 564.36 350.184 565.013 351.011 565.5C399.314 593.528 447.728 621.457 496.225 649.291C499.392 650.51 502.907 650.364 505.936 648.835C540.436 629.371 574.605 609.54 608.764 590.076C623.654 581.269 638.503 572.561 654.902 562.976C651.349 560.737 649.337 559.319 647.294 558.102C629.728 547.981 612.063 538.155 594.74 527.741C590.659 524.794 585.149 524.794 581.068 527.741C557.419 541.707 533.476 555.181 509.828 569.146C504.382 572.912 497.184 572.912 491.737 569.146C467.7 554.937 443.092 541.2 419.201 527.04C417.62 525.804 415.712 525.119 413.802 525.042Z" fill="#e16531" fill-rule="nonzero" opacity="1" stroke="none"/>
</g>
</svg>
