<svg version="1.2" xmlns="http://www.w3.org/2000/svg" viewBox="0 0 654 162" width="654" height="162"><style>.a{fill:#e16531}.b{fill:#0b0b0b}.c{fill:#fff}</style><path class="a" d="m431 0h223v162h-261.1z"/><path class="b" d="m29.5 98.4q30.5-1.4 42.7-2.3v-16.9q-16.9 2.3-28.1 3.3-0.5-3.3-3.8-9.4 11.7 0 31.4-2.8 20.2-2.8 34.2-8.5 1.9 5.7 6.6 9.9-6.1 0.9-13.1 2.3-7 1-18.3 3.3v17.8q30.9-2.8 45.9-5.1v9.3q-8.4 1-19.6 1.9-10.8 1-26.3 2.4v16.8q-0.5 8.5 6.6 8.5h21.1q4.2 0 7-1 2.8-0.9 3.3-12.2 5.6 3.3 10.3 4.7-2.4 10.3-6.1 13.6-3.3 2.8-9.4 2.4h-30.9q-11.3 0.4-10.8-8.9v-23q-26.3 1.9-40.3 2.8-1-4.2-2.4-8.9zm98-51.6q-0.5 7.5-0.5 11.3 0 3.3 0.5 9.8h-9.4v-12.6h-75.4v13.6h-10.3q0.4-7.1 0.4-10.3 0-3.8-0.4-11.8zm-57.7-13.6q3.3-1.8 8.4-5.1 5.7 7.5 8.9 13.1-7 3.3-9.3 5.2-1.4-4.2-8-13.2zm-43.5 65.2q30.5-1.4 42.7-2.3v-16.9q-16.9 2.3-28.1 3.3-0.5-3.3-3.8-9.4 11.7 0 31.4-2.8 20.2-2.8 34.2-8.5 1.9 5.7 6.6 9.9-6.1 0.9-13.1 2.3-7.1 1-18.3 3.3v17.8q30.9-2.8 45.9-5.1v9.3q-8.4 1-19.7 1.9-10.7 1-26.2 2.4v16.8q-0.5 8.5 6.5 8.5h21.1q4.3 0 7.1-1 2.8-0.9 3.3-12.2 5.6 3.3 10.3 4.7-2.4 10.3-6.1 13.6-3.3 2.8-9.4 2.4h-30.9q-11.3 0.4-10.8-8.9v-23q-26.3 1.9-40.3 2.8-1-4.2-2.4-8.9zm98-51.6q-0.5 7.5-0.5 11.3 0 3.3 0.5 9.8h-9.4v-12.6h-75.5v13.6h-10.3q0.5-7.1 0.5-10.3 0-3.8-0.5-11.8zm-57.6-13.6q3.3-1.8 8.4-5.1 5.6 7.5 8.9 13.1-7 3.3-9.4 5.2-1.4-4.2-7.9-13.2zm141.8 72.7q-15.4 12.2-28.5 19.2-13.2 7.1-22.5 11.7-3.8-4.6-7.1-8.4 23-7.5 36.1-15.9 13.6-8.5 19.2-14.6-1.8-3.2-3.7-5.6-14.5 10.3-25.8 16.4-11.2 6.1-17.8 8.5-3.3-4.7-7-8 18.7-5.6 29.5-12.2 11.2-6.6 15.9-10.8-1.8-2.3-4.2-5.1-7.5 4.2-16.4 8.4-8.4 3.7-18.3 8-2.8-4.7-6.5-9.4 19.2-4.7 29.5-9.9 10.3-5.1 15-10.3h-6.6q-6.5 0-15.4 0.5v-8.4q8.9 0.4 15.4 0.4h31.9q6.1 0 15-0.4v8.4q-8.9-0.5-15-0.5h-12.7q-4.2 3.8-9.3 8.5 3.7 3.3 7 7 3.3 3.3 7 9.4 5.7-2.8 12.7-7.5 7-5.2 12.6-12.7 7.1 6.6 9.4 8.9-5.6 2.4-9.8 4.7-4.2 2.4-7.1 5.2 4.3 14 10.8 20.1 6.6 6.1 18.3 11.7-4.7 3.3-8.4 9-13.2-8.5-19.2-17.4-6.1-9.4-8.5-19.2-3.7 2.3-7.5 4.2 2.4 12.7 1.9 21.1 0 8.4-7 13.1-6.6 4.2-16 5.7-1.9-6.1-4.2-10.8 8 0 12.7-1.4 4.6-1.4 5.1-7.1 1-5.6-0.5-14.5zm-1.4-77.8q1 4.7 4.3 14.1h43.1q-0.5 7.5-0.5 12.1 0 4.3 0.5 10.8h-9.9v-15.4h-81.5v17.8h-9.9q0.5-7.5 0.5-13.2 0-6.1-0.5-12.1h46.9q-1.9-6.1-4.2-10.8 6.1-1.4 11.2-3.3zm-1.7 77.8q-15.5 12.2-28.6 19.2-13.1 7.1-22.5 11.7-3.8-4.6-7-8.4 22.9-7.5 36.1-15.9 13.5-8.5 19.2-14.6-1.9-3.2-3.8-5.6-14.5 10.3-25.8 16.4-11.2 6.1-17.8 8.5-3.3-4.7-7-8 18.7-5.6 29.5-12.2 11.3-6.6 16-10.8-1.9-2.3-4.3-5.1-7.5 4.2-16.4 8.4-8.4 3.7-18.2 8-2.9-4.7-6.6-9.4 19.2-4.7 29.5-9.9 10.3-5.1 15-10.3h-6.5q-6.6 0-15.5 0.5v-8.4q8.9 0.4 15.5 0.4h31.8q6.1 0 15-0.4v8.4q-8.9-0.5-15-0.5h-12.6q-4.2 3.8-9.4 8.5 3.8 3.3 7 7 3.3 3.3 7.1 9.4 5.6-2.8 12.6-7.5 7.1-5.2 12.7-12.7 7 6.6 9.4 8.9-5.7 2.4-9.9 4.7-4.2 2.4-7 5.2 4.2 14 10.8 20.1 6.5 6.1 18.2 11.7-4.6 3.3-8.4 9-13.1-8.5-19.2-17.4-6.1-9.4-8.4-19.2-3.8 2.3-7.5 4.2 2.3 12.7 1.8 21.1 0 8.4-7 13.1-6.6 4.2-15.9 5.7-1.9-6.1-4.3-10.8 8 0 12.7-1.4 4.7-1.4 5.2-7.1 0.9-5.6-0.5-14.5zm-1.4-77.8q0.9 4.7 4.2 14.1h43.1q-0.4 7.5-0.4 12.1 0 4.3 0.4 10.8h-9.8v-15.4h-81.6v17.8h-9.8q0.4-7.5 0.4-13.2 0-6.1-0.4-12.1h46.8q-1.8-6.1-4.2-10.8 6.1-1.4 11.3-3.3zm101.1 10.8q-0.5 8.4-0.5 18.3v37.9q0 8.9 0.5 16.9h-9.9v-8.4h-13.1v14.5h-9.8q0-8.4 0.4-16.9v-44q0-9.9-0.4-18.3zm67.5-5.2q-0.5 8-0.5 17.4v35.6q0 9.4 0.5 17.3h-9.4v-62.8h-37v62.4h-9.9q0-8.5 0.9-17.9v-33.7q-0.9-9.8-0.9-18.3zm-70.3 94.2q16.4-4.7 23.9-12.6 8-8.5 10.8-18.8 2.8-10.3 2.8-22 0-12.2-0.5-24.4 7.1 0.5 11.7 0.5-1.4 8-1.8 20.1 0 11.8-1 18.3-0.4 6.6-3.2 14.6-2.4 7.9-7.1 14-4.7 5.6-11.2 10.3-6.6 4.7-15 9.4-2.4-4.2-9.4-9.4zm-20.2-32.3h13.2v-49.2h-13.2zm72.7 9.8q6.6 4.7 14.1 10.3 7.5 5.7 14.5 10.3-2.8 1.9-7.5 7.5-4.2-3.7-10.8-8.9-6.6-5.1-16.4-11.7 3.3-3.7 6.1-7.5zm-52.9-66.5q-0.4 8.4-0.4 18.2v38q0 8.9 0.4 16.9h-9.8v-8.5h-13.1v14.6h-9.9q0-8.5 0.5-16.9v-44.1q0-9.8-0.5-18.2zm67.5-5.2q-0.4 8-0.4 17.3v35.7q0 9.3 0.4 17.3h-9.3v-62.8h-37.1v62.3h-9.8q0-8.4 0.9-17.8v-33.7q-0.9-9.9-0.9-18.3zm-70.3 94.2q16.4-4.7 23.9-12.6 7.9-8.5 10.8-18.8 2.8-10.3 2.8-22 0-12.2-0.5-24.4 7 0.5 11.7 0.5-1.4 7.9-1.9 20.1 0 11.7-0.9 18.3-0.5 6.6-3.3 14.5-2.3 8-7 14.1-4.7 5.6-11.3 10.3-6.5 4.7-15 9.4-2.3-4.2-9.3-9.4zm-20.2-32.3h13.1v-49.2h-13.1zm72.7 9.8q6.5 4.7 14 10.3 7.5 5.6 14.6 10.3-2.9 1.9-7.5 7.5-4.3-3.7-10.8-8.9-6.6-5.1-16.4-11.7 3.3-3.8 6.1-7.5z"/><path class="c" d="m484.9 88.9h-0.6l-7.1 39.1h-28.8l16.4-90h28.8l-6.7 36.7h0.6q0.5-2.1 1.2-3.8 0.7-1.8 1.5-3.1l19.5-29.8h31.2l-29.7 44.2 14 45.8h-31.2l-8.9-32.3q-0.3-1.3-0.4-3-0.1-1.7 0.2-3.8zm54-0.4l9.2-50.5h28.8l-12.3 67.6h10.2q5.5 0 7.7-1.5 2.3-1.4 3.1-6.2l10.9-59.9h28.8l-9.2 50.5q-2.1 11.5-5.1 19.5-2.8 7.9-8.1 12.9-5.1 4.9-13 7.1-8 2.2-20 2.2-12 0-19.1-2.2-7.2-2.2-10.6-7.1-3.3-4.9-3.5-12.8 0.1-8.1 2.2-19.6z"/></svg>